<?xml version="1.0" encoding="utf-8"?>
<!-- Generator: Adobe Illustrator 23.0.5, SVG Export Plug-In . SVG Version: 6.00 Build 0)  -->
<svg version="1.1" id="Layer_1" xmlns="http://www.w3.org/2000/svg" xmlns:xlink="http://www.w3.org/1999/xlink" x="0px" y="0px"
	 viewBox="0 0 832.1 765.8" enable-background="new 0 0 832.1 765.8" xml:space="preserve">
<path d="M682.4,372.9H552.8c-4.1,70-61.6,127.4-129.2,127.3C356.2,500,299,441.8,298.9,373.4c-0.1-65.6,49.6-117,117.2-124.3V115.9
	c-1.5-0.1-3.1-0.1-4.6-0.2c-133.7,0.5-245.3,119.8-246,261.4C164.9,508,270.2,633.9,423.8,633.9c156,0.1,255.6-113.9,258.7-240.5
	C682.7,386.5,682.6,379.6,682.4,372.9z"/>
<path fill="#FF6D33" d="M427.6,289.7c46.2,0.6,84.5,40.8,83.7,87.7c-0.8,46.4-41.2,85.4-87.7,84.5c-48.7-0.9-85.4-40.6-84.2-90.9
	C340.7,321.6,376.1,289,427.6,289.7z"/>
</svg>
